<svg version="1.0" xmlns="http://www.w3.org/2000/svg"
 width="482.000000pt" height="90.000000pt" viewBox="0 0 482.000000 90.000000"
 preserveAspectRatio="xMidYMid meet">

<g transform="translate(0.000000,90.000000) scale(0.100000,-0.100000)" stroke="none">
<path d="M2080 884 c0 -8 -11 -32 -25 -52 -26 -38 -32 -62 -15 -62 6 0 10 5
10 11 0 5 11 27 25 47 26 38 33 72 15 72 -5 0 -10 -7 -10 -16z"/>
<path d="M4097 841 c-15 -31 -27 -59 -27 -63 0 -16 15 -7 26 15 6 12 19 36 30
54 12 21 15 35 9 41 -6 6 -20 -11 -38 -47z"/>
<path d="M1032 761 c-184 -141 -373 -238 -512 -263 -68 -12 -78 -27 -65 -96
27 -146 231 -352 348 -352 42 0 153 59 436 232 407 249 581 338 665 341 34 2
41 -1 44 -19 2 -11 -35 -96 -81 -190 -46 -93 -89 -186 -96 -206 -15 -46 -7
-78 21 -78 30 0 164 71 443 234 263 155 453 254 495 258 23 3 25 0 24 -38 0
-31 -24 -90 -93 -232 -51 -104 -95 -208 -98 -231 -5 -39 -4 -41 21 -41 36 0
145 109 250 250 43 58 82 109 86 113 4 5 -1 -22 -11 -60 -24 -84 -22 -156 4
-161 10 -2 36 8 58 22 48 32 188 199 220 264 13 26 25 49 26 50 3 7 427 61
558 73 80 6 145 7 170 2 36 -9 40 -12 38 -39 -1 -16 -43 -113 -94 -215 -124
-255 -119 -286 36 -211 44 22 193 105 330 186 291 171 480 268 524 270 37 1
42 26 6 26 -56 0 -162 -55 -557 -287 -239 -140 -385 -216 -399 -207 -17 10 -9
31 86 225 112 228 118 257 50 272 -57 12 -235 1 -453 -29 -103 -14 -216 -29
-251 -32 -59 -6 -65 -9 -72 -33 -20 -76 -226 -319 -270 -319 -18 0 -8 73 26
186 20 64 33 119 30 122 -3 3 -6 3 -8 1 -2 -2 -50 -67 -107 -144 -103 -139
-244 -295 -268 -295 -7 0 -12 6 -12 13 0 6 44 102 97 212 87 178 98 206 98
255 l0 55 -38 -1 c-53 -2 -186 -69 -501 -254 -282 -165 -397 -226 -431 -232
-34 -5 -21 36 71 222 53 105 89 191 92 216 4 42 4 43 -31 49 -77 15 -230 -54
-543 -243 -98 -60 -251 -152 -339 -205 -87 -53 -181 -104 -207 -113 -44 -14
-52 -14 -100 2 -42 13 -69 34 -133 98 -85 85 -127 156 -140 233 -5 32 -3 44 7
47 7 2 44 11 82 20 80 19 240 93 341 158 93 60 255 186 255 198 0 18 -14 9
-128 -79z"/>
<path d="M599 793 c-112 -101 -601 -756 -584 -783 3 -6 67 76 142 182 231 328
388 526 470 597 32 27 42 41 31 41 -10 0 -37 -17 -59 -37z"/>
</g>
</svg>
