<svg xmlns="http://www.w3.org/2000/svg" xmlns:xlink="http://www.w3.org/1999/xlink" width="218" height="218" viewBox="0 0 218 218">
  <defs>
    <filter id="路径_1" x="0" y="0" width="218" height="218" filterUnits="userSpaceOnUse">
      <feOffset dy="3" input="SourceAlpha"/>
      <feGaussianBlur stdDeviation="3" result="blur"/>
      <feFlood flood-opacity="0.161"/>
      <feComposite operator="in" in2="blur"/>
      <feComposite in="SourceGraphic"/>
    </filter>
    <filter id="JW" x="25.5" y="37.5" width="175" height="162" filterUnits="userSpaceOnUse">
      <feOffset dx="4" dy="4" input="SourceAlpha"/>
      <feGaussianBlur stdDeviation="3" result="blur-2"/>
      <feFlood flood-opacity="0.161"/>
      <feComposite operator="in" in2="blur-2"/>
    </filter>
    <filter id="JW-2" x="25.5" y="37.5" width="175" height="162" filterUnits="userSpaceOnUse">
      <feOffset dy="3" input="SourceAlpha"/>
      <feGaussianBlur stdDeviation="3" result="blur-3"/>
      <feFlood flood-opacity="0.161" result="color"/>
      <feComposite operator="out" in="SourceGraphic" in2="blur-3"/>
      <feComposite operator="in" in="color"/>
      <feComposite operator="in" in2="SourceGraphic"/>
    </filter>
  </defs>
  <g id="logo" transform="translate(9 6)">
    <g transform="matrix(1, 0, 0, 1, -9, -6)" filter="url(#路径_1)">
      <path id="路径_1-2" data-name="路径 1" d="M34,0H166a34,34,0,0,1,34,34V166a34,34,0,0,1-34,34H34A34,34,0,0,1,0,166V34A34,34,0,0,1,34,0Z" transform="translate(9 6)" fill="var(--el-color-primary)"/>
    </g>
    <g data-type="innerShadowGroup">
      <g transform="matrix(1, 0, 0, 1, -9, -6)" filter="url(#JW)">
        <text id="JW-3" data-name="JW" transform="translate(109.5 151.5)" fill="#fff" stroke="rgba(86,86,86,0.84)" stroke-linecap="round" stroke-width="5" font-size="130" font-family="STHupo"><tspan x="-72.54" y="0">JW</tspan></text>
      </g>
      <text id="JW-4" data-name="JW" transform="translate(100.5 145.5)" fill="#fff" font-size="130" font-family="STHupo"><tspan x="-72.54" y="0">JW</tspan></text>
      <g transform="matrix(1, 0, 0, 1, -9, -6)" filter="url(#JW-2)">
        <text id="JW-5" data-name="JW" transform="translate(109.5 151.5)" fill="#fff" font-size="130" font-family="STHupo"><tspan x="-72.54" y="0">JW</tspan></text>
      </g>
      <text id="JW-6" data-name="JW" transform="translate(100.5 145.5)" stroke="rgba(86,86,86,0.84)" stroke-linecap="round" stroke-width="5" font-size="130" font-family="STHupo" fill="none"><tspan x="-72.54" y="0">JW</tspan></text>
    </g>
  </g>
</svg>
